<svg width="37" height="43" viewBox="0 0 37 43" fill="none" xmlns="http://www.w3.org/2000/svg">
<path fill-rule="evenodd" clip-rule="evenodd" d="M11.5649 18.4572L12.2379 19.7324H25.2843C25.5563 19.7412 25.7717 19.9638 25.7717 20.2358C25.7717 20.506 25.5563 20.7285 25.2843 20.7374H12.7673L12.8768 20.944C13.0781 21.3449 13.4932 21.5939 13.9418 21.5851H27.5607V6.61846C27.5589 6.51956 27.4794 6.44008 27.3805 6.43831H5.59154C5.54385 6.43831 5.49793 6.45774 5.46437 6.4913C5.43082 6.52485 5.41316 6.57078 5.41139 6.61846V16.9557H9.44355C9.84624 16.9539 10.2418 17.0617 10.5862 17.2683C10.6763 17.323 10.7629 17.3849 10.8459 17.452H25.2844C25.5617 17.452 25.786 17.678 25.786 17.9553C25.786 18.2326 25.5617 18.4569 25.2844 18.4569L11.5649 18.4572ZM20.742 36.3465H28.2339C28.5129 36.3465 28.7373 36.5708 28.7373 36.8481V40.1596C28.7373 40.4369 28.513 40.6613 28.2339 40.6613H20.742C20.4647 40.6613 20.2404 40.4369 20.2404 40.1596V36.8481C20.2404 36.5708 20.4647 36.3465 20.742 36.3465ZM27.7325 37.3515H21.2434V39.6581H27.7325V37.3515ZM11.503 20.4917L11.9869 21.4119H11.9887C12.3631 22.1413 13.119 22.5988 13.9403 22.5899H28.7284C29.3906 22.5917 29.9293 23.1286 29.9311 23.7927V40.6258C29.9294 41.2881 29.3907 41.8268 28.7284 41.8286H2.20596C1.54366 41.8268 1.00499 41.2881 1.00318 40.6258V19.1633C1.00494 18.4992 1.54362 17.9623 2.20596 17.9605H9.44378C9.89238 17.9517 10.3074 18.2007 10.5088 18.6016L11.4802 20.4437C11.4872 20.4614 11.4961 20.4773 11.5049 20.4914L11.503 20.4917ZM18.7268 14.9426C18.5908 14.9479 18.4583 14.8967 18.3612 14.8013C18.2641 14.7077 18.2093 14.577 18.2093 14.441C18.2093 14.305 18.2641 14.1743 18.3612 14.0807C18.4583 13.9854 18.5908 13.9341 18.7268 13.9394H25.2846C25.5566 13.9483 25.772 14.169 25.772 14.441C25.772 14.713 25.5566 14.9338 25.2846 14.9426L18.7268 14.9426ZM18.7268 12.5159C18.4495 12.5159 18.2234 12.2916 18.2234 12.0143C18.2234 11.737 18.4495 11.5109 18.7268 11.5109H25.2846C25.5619 11.5109 25.7862 11.737 25.7862 12.0143C25.7862 12.2916 25.5619 12.5159 25.2846 12.5159H18.7268ZM18.7268 10.0892C18.5908 10.0927 18.4583 10.0415 18.3612 9.94613C18.2641 9.85253 18.2093 9.72183 18.2093 9.58584C18.2093 9.44984 18.2641 9.32091 18.3612 9.22554C18.4583 9.13193 18.5908 9.08071 18.7268 9.08425H25.2846C25.5566 9.09308 25.772 9.31561 25.772 9.58585C25.772 9.85783 25.5566 10.0804 25.2846 10.0892L18.7268 10.0892ZM10.0955 7.719H12.8595C13.0503 7.719 13.234 7.79494 13.37 7.93094L13.3735 7.93447H13.3717C13.5077 8.0687 13.5837 8.25061 13.5837 8.44136V9.90376H15.0461V9.90552C15.2368 9.90552 15.4205 9.98147 15.5547 10.1157L15.5582 10.1192C15.6925 10.2552 15.7684 10.4371 15.7684 10.6279V13.3919C15.7684 13.5827 15.6925 13.7664 15.5565 13.9024L15.5529 13.9059L15.5547 13.9041C15.4187 14.0401 15.2368 14.1143 15.0461 14.1161H13.5837V15.5785C13.5837 15.7692 13.5059 15.9529 13.3717 16.0871L13.3682 16.0906C13.234 16.2249 13.0503 16.3008 12.8595 16.3026H10.0955C9.90474 16.3008 9.72106 16.2249 9.58683 16.0889L9.58329 16.0853V16.0871C9.44906 15.9511 9.37312 15.7692 9.37135 15.5785V14.1161H7.91072C7.71821 14.1161 7.53453 14.0383 7.4003 13.9041L7.39677 13.9006C7.26255 13.7664 7.1866 13.5827 7.1866 13.3919V10.6279C7.1866 10.4371 7.26255 10.2535 7.39854 10.1192L7.40207 10.1157C7.5363 9.98146 7.71998 9.90552 7.91073 9.90552H9.37312L9.37136 8.44136C9.37312 8.25061 9.44907 8.06693 9.58506 7.9327L9.5886 7.92917H9.58683C9.72282 7.79494 9.90474 7.719 10.0955 7.719ZM12.5787 8.7222V10.4071C12.5787 10.6844 12.8048 10.9087 13.0821 10.9087H14.7653V13.1129L13.0821 13.1111C12.9479 13.1111 12.8207 13.1641 12.7271 13.2595C12.6317 13.3531 12.5787 13.4803 12.5787 13.6145V15.2977H10.3746L10.3763 13.6145C10.3763 13.3372 10.152 13.1111 9.87472 13.1111H8.18978V10.907H9.87295L9.87472 10.9087C10.0072 10.9087 10.1343 10.8557 10.2297 10.7621C10.3233 10.6668 10.3763 10.5396 10.3763 10.4071V8.72221L12.5787 8.7222ZM10.0319 24.7202C7.53458 24.7202 5.18048 25.8823 3.65948 27.8639C2.14057 29.8438 1.62839 32.4188 2.27305 34.8314C2.91947 37.2439 4.65206 39.2185 6.95855 40.1738C9.26518 41.1293 11.8846 40.9563 14.0481 39.7094C16.2098 38.4607 17.6687 36.2759 17.9955 33.8017C18.3204 31.3256 17.478 28.8386 15.7118 27.0744C14.207 25.5643 12.1634 24.7184 10.0319 24.7202ZM15.0018 27.7827C13.4564 26.2391 11.2805 25.5008 9.11498 25.7852C6.94965 26.0713 5.03869 27.3464 3.94704 29.2398C2.85378 31.1313 2.70367 33.4238 3.54083 35.4408C4.37624 37.4595 6.10354 38.9749 8.21412 39.5401C10.3247 40.1053 12.5765 39.6567 14.3107 38.3267C16.0433 36.9968 17.0589 34.9375 17.0589 32.7528C17.0624 30.8877 16.3206 29.1004 15.0013 27.7829L15.0018 27.7827ZM10.0319 31.4793C10.7931 31.4793 11.4466 30.9424 11.595 30.1971C11.7433 29.45 11.3442 28.7047 10.6412 28.4132C9.93828 28.1218 9.12759 28.3691 8.70552 29.0014C8.28341 29.6319 8.36642 30.4761 8.9051 31.013C9.20358 31.3133 9.6098 31.4811 10.0319 31.4793ZM11.8705 31.723C12.614 30.9795 12.8366 29.8615 12.4339 28.8901C12.0312 27.9187 11.0828 27.2847 10.0319 27.2847C8.98106 27.2847 8.03261 27.9187 7.6317 28.8901C7.22902 29.8615 7.45155 30.9795 8.19511 31.723C8.2216 31.7495 8.24809 31.776 8.27635 31.8007C6.353 32.5319 5.08137 34.374 5.0796 36.4315C5.0796 36.7088 5.3039 36.9349 5.5812 36.9349C5.85849 36.9349 6.08457 36.7088 6.08457 36.4315C6.05101 35.363 6.45193 34.328 7.19547 33.5597C7.94078 32.7932 8.96342 32.3588 10.0319 32.3588C11.1004 32.3588 12.1248 32.7932 12.8684 33.5597C13.6119 34.328 14.0146 35.363 13.981 36.4315C13.981 36.7088 14.2053 36.9349 14.4826 36.9349C14.7599 36.9349 14.9842 36.7088 14.9842 36.4315C14.9842 34.3739 13.7126 32.5318 11.7892 31.8007C11.8175 31.7742 11.844 31.7495 11.8705 31.723ZM31.888 8.79471H31.9622C32.6157 8.79471 33.1438 9.32457 33.1455 9.97804V18.3444H34.1134C34.728 18.3409 35.3144 18.5952 35.7329 19.0438C36.1515 19.4942 36.3617 20.0982 36.314 20.7111L34.9664 38.9996C34.9134 39.8244 34.396 40.5485 33.633 40.8664L30.0106 42.4206C29.6379 42.6891 29.1893 42.8322 28.7301 42.8322H2.20593C0.989051 42.8304 0.00176334 41.8431 0 40.6262V19.1637C0.00176605 18.0369 0.851285 17.092 1.97105 16.9701L4.40834 14.2061V6.61873C4.41011 5.96525 4.9382 5.43539 5.59168 5.43539H7.9654L8.59591 1.01647V1.01471C8.68951 0.370048 9.28822 -0.0785631 9.93288 0.0115028L31.5048 3.08287C32.1495 3.17825 32.5981 3.77342 32.5098 4.41984L31.888 8.79471ZM33.1455 19.3476V39.9854L33.2409 39.9448C33.6577 39.7752 33.9403 39.3796 33.965 38.931L35.3126 20.6425C35.3444 20.3069 35.2314 19.9749 35.0018 19.7276C34.7722 19.4821 34.4507 19.3444 34.1134 19.3497L33.1455 19.3476ZM32.1405 40.4163L32.1423 9.9784C32.1405 9.8795 32.0611 9.80002 31.9622 9.79825H31.7467L30.0141 22.0005C30.1112 22.0712 30.2031 22.1489 30.2861 22.2337C30.7011 22.647 30.9343 23.2068 30.9343 23.7932V40.6263C30.9343 40.7322 30.9272 40.8382 30.9113 40.9442L32.1423 40.4161L32.1405 40.4163ZM4.40823 15.7183L3.31319 16.9564H4.40823V15.7183ZM29.0588 21.6101C28.9493 21.5942 28.8398 21.5854 28.7285 21.5854H28.5642V6.61871C28.5642 5.96523 28.0344 5.43537 27.3809 5.43537H8.97936L9.58871 1.15598C9.594 1.10829 9.6205 1.0659 9.65758 1.03765C9.69644 1.00762 9.74413 0.995259 9.79182 1.00232L31.3638 4.07546C31.4114 4.08252 31.4538 4.10725 31.4821 4.1461C31.5121 4.18496 31.5245 4.23441 31.5174 4.2821L29.0588 21.6101Z" fill="#762B06"/>
</svg>
