<svg width="42" height="39" viewBox="0 0 42 39" fill="none" xmlns="http://www.w3.org/2000/svg">
<path fill-rule="evenodd" clip-rule="evenodd" d="M38.6807 27.0485L35.766 26.7955H35.7625C35.2565 26.7573 34.7713 26.5702 34.3727 26.2583L28.9661 22.1375H17.2793C17.009 22.1652 16.7352 22.1618 16.4649 22.1375C16.0213 22.1306 15.588 22.0162 15.2033 21.8013C14.7354 21.5934 14.3161 21.2988 13.9626 20.9314L7.79008 14.5994C6.22358 12.9913 6.25471 10.4197 7.86287 8.85314C9.47099 7.28663 12.0426 7.31778 13.6092 8.92593L16.3125 11.6812L17.6188 13.0119L20.5612 16.0063L25.3405 16.4048L26.6719 16.5191L29.8985 16.7894C30.4738 16.7859 31.0352 16.98 31.4893 17.3335L36.9999 21.5306L39.1487 21.7178H39.1452C40.2231 21.8113 41.1381 22.5461 41.4639 23.5789C41.7896 24.6083 41.4604 25.7381 40.6321 26.4312C40.1538 26.8367 39.5438 27.0585 38.9165 27.0585C38.8403 27.0585 38.7604 27.0554 38.6807 27.0485ZM40.1953 23.9777C40.3582 24.4976 40.1918 25.0625 39.7759 25.4125C39.5021 25.6412 39.1523 25.7521 38.7953 25.7209L35.8771 25.4679C35.6241 25.4506 35.378 25.357 35.177 25.1976H35.1805L29.5936 20.9416C29.4758 20.8515 29.3372 20.8064 29.1881 20.8064H17.245C17.2208 20.8064 17.2 20.8064 17.1757 20.8099C16.9747 20.8307 16.7702 20.8307 16.5692 20.8099C16.5484 20.8064 16.5241 20.8064 16.4999 20.8064C16.2677 20.8064 16.0389 20.7441 15.8379 20.6297C15.8171 20.6158 15.7929 20.6054 15.7686 20.595C15.4498 20.4564 15.1621 20.2554 14.9195 20.0058L8.74351 13.6704C7.97757 12.8836 7.75576 11.7157 8.18205 10.7037C8.60828 9.69514 9.5995 9.03664 10.6982 9.03664C11.4364 9.03664 12.1434 9.33123 12.6598 9.85803L14.4481 11.681C14.905 12.2587 15.405 12.7587 15.7547 13.0119L19.782 17.1154C19.8964 17.2297 20.0454 17.2991 20.2048 17.3129L29.8118 18.117C29.8292 18.1205 29.85 18.1205 29.8673 18.1205C30.1619 18.1135 30.4495 18.2106 30.6818 18.3942L36.3448 22.7092C36.4453 22.7854 36.5666 22.8305 36.6914 22.8409L39.0308 23.0453C39.5714 23.0904 40.0324 23.4613 40.1953 23.9777Z" fill="#762B06"/>
<path fill-rule="evenodd" clip-rule="evenodd" d="M5.89767 16.2252C5.38129 15.695 4.67429 15.39 3.93261 15.3831C2.8028 15.3691 1.77364 16.0346 1.33002 17.0743C0.882954 18.1141 1.10475 19.3167 1.89494 20.1277L6.98619 25.3506C3.61053 26.5428 1.77711 30.1819 2.81687 33.6026C3.85653 37.0268 7.40904 39.0266 10.8748 38.1393H26.3944C27.5311 38.1393 28.453 37.2175 28.4565 36.0772L28.453 36.0807V30.4869L34.4626 35.0652C35.6896 35.9975 37.4432 35.7584 38.3756 34.5315C39.3113 33.3045 39.0756 31.5544 37.8488 30.6186L29.4824 24.2416C28.9971 23.8638 28.401 23.6628 27.7875 23.6697H13.1481L5.89767 16.2252ZM27.1218 36.0768C27.1183 36.4789 26.7925 36.8012 26.394 36.8081H13.484C15.6987 34.9782 16.4958 31.9387 15.463 29.2597H26.8445L27.1218 29.4711V36.0768ZM7.1697 36.6071C5.1665 35.7787 3.85986 33.8241 3.85986 31.6579C3.86332 28.6981 6.2617 26.2998 9.21798 26.2964C11.3876 26.2964 13.3388 27.603 14.1706 29.6062C14.9989 31.6094 14.5414 33.9141 13.0061 35.446C11.4742 36.9779 9.16945 37.4354 7.1697 36.6071ZM8.50748 25.0037L2.85133 19.1985L2.85163 19.195C2.29018 18.6163 2.30058 17.6943 2.87936 17.1294C3.45811 16.568 4.38002 16.5784 4.94495 17.1537L12.3929 24.7992C12.5176 24.9309 12.6909 25.0037 12.8711 25.0037H27.7874C28.1097 24.9968 28.4251 25.1007 28.6781 25.3017H28.6746L37.041 31.6788C37.3495 31.9109 37.554 32.261 37.606 32.6457C37.658 33.0304 37.5575 33.4186 37.3218 33.7271C37.0861 34.0355 36.736 34.24 36.3513 34.292C35.9666 34.344 35.5784 34.24 35.27 34.0043V34.0009L28.2136 28.6254C28.2085 28.622 28.2033 28.6176 28.1981 28.6133C28.1929 28.609 28.1877 28.6046 28.1825 28.6012L27.472 28.0605C27.3576 27.9739 27.2155 27.9253 27.0699 27.9253H14.7701C13.3873 25.8632 10.9751 24.7368 8.50748 25.0037ZM0.366531 6.6449C1.10817 8.44023 2.86189 9.61165 4.80273 9.61165C7.45752 9.60819 9.60632 7.45939 9.60979 4.80459C9.60979 2.86029 8.43828 1.11007 6.64304 0.364935C4.8478 -0.376708 2.78222 0.0322211 1.40628 1.40815C0.0338135 2.78053 -0.378609 4.84966 0.366531 6.6449ZM1.59687 3.47728C2.13409 2.18105 3.39911 1.33193 4.80273 1.33193C6.71934 1.33193 8.27543 2.88802 8.2789 4.80464C8.2789 6.20825 7.43318 7.47677 6.13355 8.01396C4.83738 8.55113 3.34362 8.25657 2.34894 7.26188C1.35773 6.27066 1.05967 4.7769 1.59687 3.47728ZM10.9857 29.8866V28.0289C10.9857 27.8521 10.9164 27.6858 10.7916 27.561C10.6669 27.4328 10.497 27.3635 10.3203 27.3635H8.11949C7.94273 27.3635 7.77291 27.4328 7.64814 27.561C7.52338 27.6858 7.45406 27.8521 7.45406 28.0289V29.89H5.5929C5.41615 29.89 5.24632 29.9594 5.12156 30.0841C4.99679 30.2089 4.92747 30.3787 4.92747 30.5555V32.7563C4.92747 32.933 4.99679 33.1029 5.12156 33.2276C5.24632 33.3524 5.41615 33.4217 5.5929 33.4217H7.45406V35.2794C7.45406 35.4562 7.52337 35.626 7.64814 35.7507C7.77291 35.8755 7.94273 35.9448 8.11949 35.9448H10.3203C10.497 35.9448 10.6669 35.8755 10.7916 35.7507C10.9164 35.626 10.9857 35.4562 10.9857 35.2794V33.4217H12.8434C13.0202 33.4217 13.19 33.3524 13.3148 33.2276C13.4395 33.1028 13.5088 32.933 13.5088 32.7563V30.5555C13.5088 30.3787 13.4395 30.2089 13.3148 30.0841C13.19 29.9594 13.0202 29.89 12.8434 29.89L10.9857 29.8866ZM9.65486 28.6978V30.5555C9.65486 30.7322 9.72418 30.9021 9.84894 31.0268C9.97372 31.1516 10.1435 31.2209 10.3203 31.2209V31.2244H12.178V32.0908H10.3203C10.1435 32.0908 9.97372 32.1601 9.84894 32.2849C9.72418 32.4097 9.65486 32.5795 9.65486 32.7562V34.6139H8.78495V32.7562C8.78495 32.5795 8.71564 32.4097 8.59087 32.2849C8.46609 32.1601 8.29627 32.0908 8.11952 32.0908L6.26182 32.0873V31.2209H8.11952C8.29627 31.2209 8.4661 31.1516 8.59087 31.0268C8.71563 30.902 8.78495 30.7322 8.78495 30.5555V28.6978H9.65486Z" fill="#762B06"/>
</svg>
