<svg width="44" height="43" viewBox="0 0 44 43" fill="none" xmlns="http://www.w3.org/2000/svg">
<path d="M11.7773 15.9196H13.8699V18.0123C13.8699 18.3952 14.1804 18.7057 14.5634 18.7057H17.9517C18.3347 18.7057 18.6452 18.3952 18.6452 18.0123V15.9196H20.7378C21.1207 15.9196 21.4312 15.6091 21.4312 15.2262V11.8378C21.4312 11.4549 21.1207 11.1444 20.7378 11.1444H18.6452V9.05178C18.6452 8.66885 18.3347 8.35837 17.9517 8.35837H14.5634C14.1804 8.35837 13.8699 8.66885 13.8699 9.05178V11.1444H11.7773C11.3944 11.1444 11.0839 11.4549 11.0839 11.8378V15.2262C11.0839 15.6091 11.3944 15.9196 11.7773 15.9196ZM12.4707 12.5333H14.5634C14.9463 12.5333 15.2568 12.2228 15.2568 11.8399V9.74726H17.2583V11.8399C17.2583 12.2228 17.5688 12.5333 17.9517 12.5333H20.0444V14.5349H17.9517C17.5688 14.5349 17.2583 14.8454 17.2583 15.2283V17.3209H15.2568V15.2283C15.2568 14.8454 14.9463 14.5349 14.5634 14.5349H12.4707V12.5333ZM43.049 38.6532H42.3515V4.04661C43.1608 3.76096 43.7404 2.98889 43.7404 2.08231C43.7404 0.933506 42.8069 0 41.6581 0H23.9815C22.8327 0 21.8992 0.933506 21.8992 2.08231C21.8992 2.98889 22.4809 3.75893 23.2881 4.04661V20.32H6.38145C5.23265 20.32 4.29914 21.2535 4.29914 22.4023C4.29914 23.3089 4.8808 24.079 5.68803 24.3666V25.2008C5.31339 24.9566 4.88493 24.8179 4.42541 24.8179C2.9227 24.8179 1.74285 26.2937 1.71593 28.1876C1.00805 28.8231 0.579583 29.858 0.579583 30.9903C0.579583 31.4084 0.639608 31.8224 0.75345 32.2095C0.264955 32.7538 0.00206685 33.3996 0.00206685 34.0723C0.00206685 35.7552 1.59173 37.1089 3.72994 37.351V38.6571H0.693413C0.310484 38.6571 0 38.9676 0 39.3505V42.1386C0 42.5216 0.310484 42.832 0.693413 42.832H43.0411C43.424 42.832 43.7345 42.5216 43.7345 42.1386V39.3505C43.7345 38.9676 43.424 38.6571 43.0411 38.6571L43.049 38.6532ZM23.2836 2.08231C23.2836 1.69731 23.5962 1.38476 23.9812 1.38476H41.6578C42.0428 1.38476 42.3553 1.69731 42.3553 2.08231C42.3553 2.4673 42.0428 2.77985 41.6578 2.77985H23.9812C23.5962 2.77985 23.2836 2.4673 23.2836 2.08231ZM31.5155 29.1109V24.5696H40.9645V29.1109H31.5155ZM40.9645 30.4977V35.1135H31.5155V30.4977H40.9645ZM31.5155 23.1868V18.6455H40.9645V23.1868H31.5155ZM31.5155 17.2606V12.7193H40.9645V17.2606H31.5155ZM31.5155 11.3343V7.34564H40.9645V11.3343H31.5155ZM30.8221 5.96067C30.4391 5.96067 30.1286 6.27116 30.1286 6.65409V35.8065C30.1286 36.1894 30.4391 36.4999 30.8221 36.4999H40.9647V38.6546H26.7509V24.3683C27.5602 24.0826 28.1398 23.3106 28.1398 22.404C28.1398 21.2552 27.2063 20.3217 26.0575 20.3217H24.6728V4.16641H40.9626V5.96306H30.82L30.8221 5.96067ZM5.68517 22.4016C5.68517 22.0166 5.99772 21.704 6.38272 21.704H26.057C26.442 21.704 26.7545 22.0166 26.7545 22.4016C26.7545 22.7865 26.442 23.0991 26.057 23.0991H6.38272C5.99772 23.0991 5.68517 22.7865 5.68517 22.4016ZM7.75715 29.11C7.59156 28.785 7.3825 28.4952 7.13617 28.2571V28.2468C7.13617 28.1143 7.12996 27.986 7.11961 27.8577H25.3658V29.1099L7.75715 29.11ZM25.3654 30.4968V38.6523H21.8279V30.4968H25.3654ZM20.4432 30.4968V38.6523H11.9962V30.4968H20.4432ZM8.03846 32.1423C8.14196 31.7739 8.19371 31.3806 8.19371 30.9874C8.19371 30.8218 8.18336 30.6582 8.16473 30.4968H10.6113V38.6523H7.0739V36.7418C8.15646 36.1415 8.84781 35.177 8.84781 34.0675C8.84781 33.3679 8.56419 32.6992 8.03846 32.1423ZM7.07597 26.4731V24.4839H25.3656V26.4731H7.07597ZM1.39185 34.0674C1.39185 33.5479 1.72717 33.1546 2.00869 32.9186C2.24259 32.7199 2.31918 32.3908 2.19498 32.1114C2.04802 31.7761 1.96937 31.3869 1.96937 30.9875C1.96937 30.1678 2.29641 29.4268 2.79938 29.0977C3.01051 28.9611 3.13056 28.7189 3.11193 28.4684C3.10572 28.3939 3.10365 28.3215 3.10365 28.249C3.10365 27.1395 3.71011 26.2019 4.42631 26.2019C5.14458 26.2019 5.74897 27.1395 5.74897 28.249C5.74897 28.3339 5.74483 28.4187 5.73655 28.5098C5.71585 28.752 5.82348 28.988 6.02219 29.1308C6.49827 29.4744 6.80669 30.205 6.80669 30.9895C6.80669 31.3745 6.73425 31.7492 6.59556 32.0783C6.47551 32.3619 6.5583 32.6931 6.79841 32.8855C7.10061 33.1298 7.45871 33.5334 7.45871 34.0716C7.45871 35.119 6.06775 36.0048 4.42217 36.0048C2.7766 36.0048 1.38564 35.121 1.38564 34.0716L1.39185 34.0674ZM5.691 37.253V38.6522H5.12179V37.3461C5.31636 37.3234 5.50679 37.2923 5.691 37.253ZM42.3546 41.4403H1.39148V40.037H42.3546V41.4403Z" fill="#762B06"/>
</svg>
